# xmcd
#
# Track frame offsets:
#	150
#	20008
#	39679
#	56821
#	73248
#	88642
#	106326
#	124246
#	142314
#	160672
#
# Disc length: 2480 seconds
#
# Revision: 0
# Processed by: cddbd v1.5.2PL0 Copyright (c) Steve Scherf et al.
# Submitted via: audiograbber 1.83.01
#
DISCID=9509ae0a
DTITLE=Karen Lafferty - Life Pages: Love of the Ages
DYEAR=1980
DGENRE=Gospel
TTITLE0=Every Life's a Story
TTITLE1=My Life is Yours
TTITLE2=New Mexico Song
TTITLE3=Aegean
TTITLE4=Jasmine
TTITLE5=El Salvador
TTITLE6=Apples of Gold
TTITLE7=Streets of Amsterdam
TTITLE8=Timothy Tucker
TTITLE9=Love of the Ages
EXTD=
EXTT0=
EXTT1=
EXTT2=
EXTT3=
EXTT4=
EXTT5=
EXTT6=
EXTT7=
EXTT8=
EXTT9=
PLAYORDER=
